<svg width="32" height="33" viewBox="0 0 32 33" fill="none" xmlns="http://www.w3.org/2000/svg">
<path d="M30 16.5C29.9993 16.8546 29.9104 17.2032 29.7419 17.5123C29.5734 17.8215 29.3309 18.081 29.0375 18.266L11.0375 29.5969C10.7377 29.7928 10.3914 29.9 10.0365 29.9069C9.68161 29.9137 9.33171 29.8198 9.02501 29.6355C8.71377 29.4594 8.45432 29.2001 8.27394 28.8848C8.09356 28.5695 7.99893 28.2098 8.00001 27.8437V5.15624C7.99893 4.79015 8.09356 4.43052 8.27394 4.1152C8.45432 3.79989 8.71377 3.54054 9.02501 3.36444C9.33171 3.18016 9.68161 3.0863 10.0365 3.09312C10.3914 3.09994 10.7377 3.20717 11.0375 3.40311L29.0375 14.734C29.3309 14.919 29.5734 15.1785 29.7419 15.4876C29.9104 15.7968 29.9993 16.1453 30 16.5V16.5Z" fill="#471515"/>
</svg>
